<?xml version="1.0" standalone="no"?>
<!DOCTYPE svg PUBLIC "-//W3C//DTD SVG 20010904//EN"
 "http://www.w3.org/TR/2001/REC-SVG-20010904/DTD/svg10.dtd">
<svg version="1.0" xmlns="http://www.w3.org/2000/svg"
 width="500.000000pt" height="500.000000pt" viewBox="0 0 500.000000 500.000000"
 preserveAspectRatio="xMidYMid meet">

<g transform="translate(0.000000,500.000000) scale(0.100000,-0.100000)"
fill="#000000" stroke="none">
<path d="M2441 4145 c-228 -48 -341 -96 -454 -195 -52 -46 -125 -157 -157
-239 -35 -90 -68 -232 -90 -388 -21 -151 -31 -191 -71 -298 -21 -53 -23 -78
-23 -215 0 -119 4 -168 18 -213 20 -66 16 -93 -20 -146 -44 -66 -24 -159 39
-175 80 -20 111 -366 46 -503 -29 -59 -69 -80 -201 -104 -62 -11 -140 -28
-173 -38 -111 -34 -320 -89 -361 -95 -23 -3 -73 -19 -112 -36 -120 -51 -292
-110 -427 -146 -71 -19 -134 -39 -138 -43 -10 -10 20 -65 106 -196 471 -714
1322 -1150 2172 -1111 608 27 1141 248 1598 661 143 128 142 126 112 185 -30
59 -67 76 -206 94 -120 16 -123 17 -239 100 -94 67 -135 89 -324 172 -70 31
-172 82 -225 114 -53 32 -125 68 -161 80 -101 34 -103 36 -96 81 13 83 46 143
126 233 81 92 123 158 160 259 22 58 42 77 80 77 12 0 34 13 50 29 27 27 28
31 19 67 -6 22 -17 46 -24 54 -32 38 -23 91 27 152 19 24 23 45 29 155 4 71
11 144 17 163 42 140 45 166 51 440 4 151 3 292 -2 314 -4 21 -25 62 -46 92
-31 43 -39 65 -45 116 -14 134 -129 264 -368 414 -56 35 -257 98 -363 114
-106 15 -146 12 -324 -25z"/>
</g>
</svg>
